<?xml version="1.0" encoding="UTF-8"?>
<svg id="Layer_2" data-name="Layer 2" xmlns="http://www.w3.org/2000/svg" viewBox="0 0 976.95 386.02">
  <defs>
    <style>
      .cls-1 {
        fill: #0080C0;
        stroke-width: 0px;
      }
    </style>
  </defs>
  <g id="Layer_1-2" data-name="Layer 1">
    <g>
      <path class="cls-1" d="M352.01,284.04c.42.76.85,1.52,1.28,2.27l.84-2.27h-2.12ZM331.76,284.04h-1.87c-1.72,2.24-3.44,4.43-5.17,6.56-10.54,13.11-21.03,24.28-31.45,33.5-12.12,10.71-23.89,18.97-35.31,24.76-11.42,5.8-22.93,9.84-34.52,12.12-11.59,2.29-24.33,3.43-38.21,3.43-16.33,0-28.98-1.32-37.94-3.95-8.96-2.64-15.15-6.72-18.57-12.26-3.43-5.53-5.14-13.3-5.14-23.31V66.93c0-12.12,1.49-21.48,4.48-28.06,2.98-6.59,8.12-11.11,15.41-13.57,7.29-2.46,17.79-3.69,31.49-3.69h8.17V7.12H0v14.49c17.21,0,29.99,1.58,38.34,4.74,8.34,3.16,13.7,8.08,16.07,14.76,2.37,6.67,3.56,16.6,3.56,29.77v249.26c0,11.25-1.36,19.99-4.09,26.22-2.72,6.24-7.86,10.8-15.41,13.7-7.55,2.9-19.23,4.35-35.04,4.35H0v14.49h319.09l22.85-61.85,3.58-9.71c-5.09-7.24-9.67-15.01-13.76-23.3ZM83.26,326.99c0,25.65-8.87,38.47-26.61,38.47-.7,0-2.2-.17-4.48-.52-2.28-.35-3.78-.53-4.48-.53,6.33-3.51,11.02-7.64,14.1-12.38,3.07-4.75,4.61-11.42,4.61-20.03V62.19c0-13-1.32-21.96-3.95-26.88-2.64-4.92-7.56-9.49-14.76-13.7h7.91c12.99,0,20.85,4.3,23.58,12.91,2.72,8.61,4.08,21.78,4.08,39.52v252.95ZM293.27,364.41h-48.22c14.58-5.97,27.53-13.13,38.86-21.47,11.33-8.35,22-18.49,32.02-30.44l-22.66,51.91Z"/>
      <path class="cls-1" d="M529.58,217.12v15.02c17.21,1.41,29.33,3.55,36.36,6.45,7.02,2.9,11.46,7.91,13.31,15.02,1.84,7.12,2.76,19.54,2.76,37.29,0,11.24-.7,20.64-2.11,28.19-1.4,7.55-4.47,14.58-9.22,21.08-5.97,8.43-14.8,15.28-26.48,20.55s-24.28,7.91-37.81,7.91c-23.01,0-44.31-7.38-63.9-22.14-19.59-14.75-35.13-35.48-46.63-62.18-11.51-26.7-17.26-57.09-17.26-91.17s5.22-64.64,15.68-91.17c10.44-26.52,25.16-47.25,44.13-62.18,18.97-14.93,40.58-22.4,64.82-22.4,12.82,0,25.2,2.02,37.15,6.06,11.94,4.05,23.36,10.24,34.26,18.58,10.88,8.34,21.43,19.01,31.61,32.01,10.19,13,19.33,27.76,27.41,44.27h14.23l-3.73-96.69-.56-14.5h-24.15c-6.65,5.45-16.41,8.16-29.27,8.16-5.97,0-20.77-2.54-44.4-7.64-23.63-5.09-44.49-7.64-62.58-7.64-26.87,0-51.55,5.32-74.04,15.94-22.48,10.63-41.72,25.12-57.7,43.48-15.99,18.36-28.24,39.39-36.76,63.1-8.52,23.72-12.78,48.05-12.78,72.99s4.3,49.8,12.91,72.99c2.85,7.67,6.14,15.04,9.89,22.1,4.95,9.34,10.69,18.15,17.22,26.45,3.47,4.43,7.17,8.71,11.1,12.84,16.86,17.75,37.68,31.54,62.45,41.37,24.76,9.84,52.52,14.76,83.26,14.76,16.69,0,33.6-1.58,50.72-4.75,17.13-3.16,34.08-7.59,50.86-13.3,16.77-5.71,32.45-12.34,47.03-19.9v-58.76c0-17.03,1.14-29.11,3.42-36.23,2.29-7.11,6.81-12.03,13.57-14.75,6.76-2.72,18.84-4.78,36.23-6.19v-15.02h-171ZM573.84,27.01c3.87.97,7.38,1.67,10.54,2.11,3.17.44,6.68.66,10.54.66,5.1,0,11.6-1.59,19.5-4.75l3.69,47.96c-17.04-21.08-34.52-37.06-52.43-47.96,1.58.36,4.3,1.02,8.16,1.98ZM423.79,366.12c-9.93-3.42-20.07-8.17-30.44-14.23-10.36-6.06-20.55-14-30.56-23.84-6.28-6.35-12.04-13.25-17.27-20.71-5.09-7.24-9.67-15.01-13.76-23.3-2.65-5.36-5.08-10.94-7.31-16.73-9.22-23.97-13.83-48.26-13.83-72.85,0-19.5,2.8-38.43,8.43-56.78,5.62-18.36,13.79-35.75,24.5-52.18,10.72-16.42,22.8-30.38,36.23-41.89,13.44-11.5,27.8-20.24,43.08-26.22,7.38-2.98,17.39-5.7,30.04-8.17-12.12,5.45-22.62,10.68-31.49,15.68-8.87,5.01-18.31,12.17-28.32,21.48-20.2,19.14-36.14,41.98-47.82,68.5-11.69,26.53-17.53,52.88-17.53,79.05,0,22.49,4.57,45.1,13.7,67.85,3.09,7.7,6.62,15.12,10.57,22.26.42.76.85,1.52,1.28,2.27,7.49,13.1,16.45,25.26,26.89,36.47,12.65,13.35,25.03,23.76,37.15,31.22,12.12,7.47,26.88,15.07,44.27,22.79-15.28-3.69-27.89-7.24-37.81-10.67ZM603.49,330.16c-3.26,8.78-8.7,15.94-16.34,21.47s-18.4,9.8-32.28,12.78c12.65-6.85,21.78-15.5,27.41-25.95,5.62-10.45,8.43-21.04,8.43-31.75v-34.79c0-10.71-1.71-18.84-5.14-24.37-3.42-5.53-8.39-10.67-14.89-15.41,11.77,1.23,20.33,3.99,25.69,8.3,5.36,4.3,8.7,10.27,10.02,17.91,1.31,7.65,1.97,20.16,1.97,37.55,0,14.06-1.62,25.47-4.87,34.26Z"/>
      <path class="cls-1" d="M967.99,70.49c-5.97-11.68-13.83-21.78-23.58-30.31-9.75-8.51-20.21-15.23-31.36-20.15-11.16-4.92-21.65-7.82-31.49-8.7-30.56-2.81-49.89-4.21-57.96-4.21h-181.29v14.49c.62,0,1.24,0,1.85.01,18.7.11,32.09,2.04,40.18,5.78,8.34,3.87,13.35,9.84,15.02,17.92,1.67,8.08,2.5,21.78,2.5,41.11v232.13c0,9.67-.75,17.26-2.24,22.79-1.49,5.54-4.3,10.06-8.43,13.57-4.13,3.52-9.75,5.89-16.86,7.12-7.12,1.23-17.79,2.02-32.02,2.37v14.49h191.56v-14.49c-8.26-.35-17.22-.88-26.87-1.58-9.67-.7-17.13-2.24-22.4-4.61-5.27-2.37-9.45-6.41-12.52-12.12-3.07-5.71-4.61-13.84-4.61-24.38v-111.72h58.5c25.29,0,47.47-2.45,66.53-7.37s34.87-11.86,47.43-20.82c12.55-8.96,21.87-19.58,27.93-31.88,6.06-12.3,9.09-26.09,9.09-41.37,0-13.7-2.99-26.39-8.96-38.07ZM727.16,336.74c0,18.45-9.75,27.67-29.25,27.67h-6.85c12.82-5.62,19.23-16.77,19.23-33.46V83.26c0-14.22-.44-25.2-1.31-32.93-.88-7.73-2.73-13.7-5.54-17.92-2.81-4.22-7.73-7.99-14.75-11.33,10.71.88,18.66,2.42,23.84,4.61,5.18,2.2,8.79,5.67,10.81,10.41,2.02,4.74,3.16,10.45,3.42,17.13.27,6.67.4,20.81.4,42.42v241.09ZM804.36,195.51h-36.89v-111.19c0-16.51.83-28.99,2.51-37.42,1.66-8.43,5.79-14.75,12.38-18.97,6.59-4.21,17.34-6.32,32.28-6.32,12.99,0,23.88.97,32.67,2.9,8.78,1.93,17.48,6.06,26.09,12.38,21.6,15.99,32.41,40.05,32.41,72.2,0,21.43-3.96,38.51-11.86,51.25-7.91,12.73-19.24,21.78-33.99,27.14-14.76,5.36-33.29,8.03-55.6,8.03ZM915.55,167.58c-10.36,13.53-26.08,21.87-47.16,25.03,30.74-13.17,46.11-40.66,46.11-82.47,0-13-1.76-25.03-5.27-36.1-3.52-11.06-8.79-20.72-15.81-28.98-7.03-8.26-15.54-14.93-25.56-20.03,21.08,4.4,36.89,13.14,47.43,26.22,10.54,13.09,15.81,32.72,15.81,58.89,0,24.77-5.18,43.92-15.55,57.44Z"/>
    </g>
  </g>
</svg>